<svg role="img" aria-label="youtube" width="33" height="22" viewBox="0 0 33 22" fill="none" xmlns="http://www.w3.org/2000/svg">
<title>YouTube</title>
<path fill-rule="evenodd" clip-rule="evenodd" d="M31.5131 3.4353C31.145 2.08287 30.0607 1.01778 28.6839 0.656596C26.1885 0 16.182 0 16.182 0C16.182 0 6.1755 0 3.68016 0.656596C2.30332 1.01778 1.21899 2.08287 0.850957 3.4353C0.182617 5.88628 0.182617 11 0.182617 11C0.182617 11 0.182617 16.1137 0.851557 18.5647C1.21959 19.9171 2.30392 20.9822 3.68076 21.3434C6.1761 22 16.1826 22 16.1826 22C16.1826 22 26.1891 22 28.6845 21.3434C30.0613 20.9816 31.1456 19.9171 31.5137 18.5647C32.1826 16.1137 32.1826 11 32.1826 11C32.1826 11 32.1814 5.88628 31.5131 3.4353ZM12.9824 15.8402V7.04023L21.2105 11.4408L12.9824 15.8402Z" fill="#FCFCFA"/>
</svg>