<svg role="img" aria-label="instagram" width="28" height="28" viewBox="0 0 28 28" fill="none" xmlns="http://www.w3.org/2000/svg">
<title>Instagram</title>
<path d="M2.40498 13.9256C2.40498 15.9217 2.40498 17.9177 2.40498 19.9137C2.40498 20.7058 2.53198 21.4662 2.88121 22.1949C3.8654 24.1275 5.4528 25.1414 7.61167 25.1731C11.6437 25.2048 15.6757 25.1731 19.7077 25.1731C20.4697 25.1731 21.2316 25.0463 21.9301 24.6978C23.8985 23.7157 24.9144 22.1315 24.9144 19.9454C24.9461 15.9217 24.9144 11.9296 24.9144 7.90588C24.9144 7.14549 24.7874 6.3851 24.4382 5.68808C23.454 3.72374 21.8666 2.70988 19.7077 2.70988C15.6757 2.6782 11.6437 2.6782 7.61167 2.70988C5.64329 2.70988 4.11938 3.597 3.10344 5.2762C2.59547 6.09995 2.40498 7.01876 2.40498 7.96925C2.40498 9.96527 2.40498 11.9613 2.40498 13.9256ZM0.182617 13.9573C0.182617 12.0247 0.182617 10.0603 0.182617 8.12766C0.182617 6.29005 0.690587 4.67422 1.86527 3.24849C2.91295 1.98118 4.24637 1.09405 5.86553 0.745543C6.46874 0.618811 7.1037 0.523762 7.70692 0.523762C11.6754 0.492079 15.6757 0.492079 19.6442 0.523762C21.9936 0.523762 23.9302 1.44257 25.4541 3.21681C26.6288 4.57917 27.1685 6.195 27.1685 8.00093C27.1685 11.993 27.2003 16.0167 27.1685 20.0088C27.1368 22.9236 25.8033 25.1097 23.2952 26.5671C22.1841 27.2008 20.9459 27.4859 19.676 27.4859C15.6757 27.4859 11.6754 27.5176 7.67517 27.4859C4.75434 27.4542 2.56372 26.1236 1.10331 23.6206C0.46835 22.5117 0.182617 21.2761 0.182617 19.9771C0.182617 17.9177 0.182617 15.9217 0.182617 13.9573Z" fill="#FCFCFA"/>
<path d="M18.0884 13.9573C18.0884 11.5177 16.0883 9.52168 13.6437 9.55337C11.1991 9.55337 9.19895 11.5494 9.2307 13.989C9.2307 16.4286 11.2308 18.4246 13.6754 18.3929C16.12 18.3612 18.1202 16.3969 18.0884 13.9573ZM13.6754 20.7058C9.9609 20.7058 6.91309 17.6642 6.91309 13.9573C6.91309 10.2504 9.9609 7.20883 13.6754 7.20883C17.39 7.20883 20.4378 10.2504 20.4378 13.9573C20.4378 17.6642 17.39 20.7058 13.6754 20.7058Z" fill="#FCFCFA"/>
<path d="M21.0097 8.34945C20.089 8.34945 19.2953 7.58906 19.3271 6.67025C19.3271 5.75145 20.089 4.99106 21.0097 4.99106C21.9304 4.99106 22.7241 5.75145 22.6924 6.67025C22.6606 7.58906 21.9304 8.34945 21.0097 8.34945Z" fill="#FCFCFA"/>
</svg>