<svg width="32" height="32" viewBox="0 0 32 32" fill="none" xmlns="http://www.w3.org/2000/svg">
<rect width="32" height="32" rx="4" fill="#1A1818"/>
<path d="M11.4442 5.07614C10.2738 5.13136 9.47436 5.3188 8.77586 5.59247C8.05272 5.87429 7.4398 6.25225 6.82996 6.86451C6.21946 7.47721 5.84458 8.09123 5.56474 8.81503C5.29392 9.51529 5.11022 10.3152 5.05875 11.4863C5.00727 12.6597 4.99561 13.034 5.00133 16.0211C5.00705 19.0078 5.02025 19.3827 5.07612 20.5564C5.132 21.7266 5.31878 22.5256 5.59246 23.2246C5.87472 23.9477 6.25224 24.5604 6.86472 25.1705C7.47698 25.7805 8.09144 26.1552 8.81568 26.4352C9.51528 26.7058 10.3154 26.89 11.4863 26.9412C12.6595 26.9929 13.0342 27.0044 16.0204 26.9987C19.008 26.9929 19.3827 26.9797 20.556 26.9241C21.7264 26.8682 22.525 26.6808 23.2243 26.4077C23.9475 26.1248 24.5604 25.748 25.1702 25.1355C25.7801 24.5232 26.155 23.9088 26.4348 23.1845C26.7056 22.4849 26.89 21.6848 26.9408 20.5146C26.9921 19.3407 27.0042 18.9656 26.9984 15.9791C26.9927 12.9922 26.9793 12.6179 26.9236 11.4449C26.868 10.2738 26.6805 9.47503 26.4073 8.77587C26.1246 8.05273 25.7475 7.44047 25.1353 6.82997C24.523 6.22013 23.9085 5.84459 23.1843 5.56541C22.4843 5.2946 21.6846 5.11002 20.5137 5.05942C19.3407 5.00706 18.9662 4.99562 15.9789 5.00134C12.9922 5.00706 12.6177 5.01982 11.4445 5.07614M11.5727 24.9615C10.5002 24.9148 9.91788 24.7366 9.5298 24.5872C9.01588 24.3884 8.64914 24.1499 8.26304 23.7669C7.87782 23.3823 7.63868 23.0167 7.43804 22.5038C7.28734 22.1158 7.10584 21.5341 7.05568 20.4616C7.00112 19.3022 6.98858 18.9544 6.9833 16.0172C6.97758 13.0808 6.98836 12.7328 7.03896 11.5725C7.08494 10.5009 7.26424 9.91767 7.41318 9.53003C7.61206 9.01545 7.84966 8.64937 8.23356 8.26327C8.61812 7.87739 8.98376 7.63891 9.49702 7.43827C9.88488 7.28669 10.4663 7.10673 11.5384 7.05591C12.6985 7.00091 13.0461 6.98925 15.9824 6.98353C18.9194 6.97781 19.2674 6.98815 20.4277 7.03919C21.4993 7.08583 22.0825 7.26337 22.47 7.41341C22.9843 7.61229 23.3511 7.84923 23.7367 8.23379C24.1224 8.61835 24.3615 8.98333 24.5622 9.49769C24.7135 9.88445 24.8937 10.4668 24.9443 11.5384C24.9995 12.6985 25.0121 13.0463 25.0173 15.9828C25.0231 18.9201 25.0123 19.2679 24.9615 20.4275C24.9148 21.5 24.7368 22.0826 24.5872 22.4711C24.3884 22.9845 24.1505 23.3513 23.7664 23.7374C23.3823 24.1219 23.0167 24.3617 22.503 24.5624C22.116 24.7135 21.5336 24.8939 20.4622 24.9447C19.3022 24.9993 18.9546 25.0118 16.0171 25.0171C13.0808 25.0228 12.7332 25.0118 11.5729 24.9615M20.5399 10.1201C20.5412 10.8485 21.1337 11.4383 21.8621 11.437C22.591 11.4357 23.1808 10.8436 23.1797 10.115C23.1781 9.38659 22.5859 8.79633 21.857 8.79765C21.1282 8.79897 20.5384 9.39143 20.5397 10.1198M10.3519 16.0108C10.3579 19.1304 12.8916 21.6538 16.0105 21.6476C19.1297 21.6415 21.6544 19.1086 21.6485 15.989C21.6423 12.8705 19.1084 10.3458 15.9888 10.3517C12.8698 10.3579 10.3458 12.8918 10.3519 16.0108ZM12.3333 16.0068C12.3297 13.9822 13.9685 12.3372 15.9927 12.3337C18.0174 12.3297 19.6625 13.9679 19.6665 15.993C19.6705 18.0181 18.0317 19.6626 16.0066 19.6665C13.9822 19.6705 12.337 18.0321 12.3333 16.007" fill="#FCFCFA"/>
</svg>
