<svg role="img" aria-label="twitter" width="36" height="26" viewBox="0 0 36 26" fill="none" xmlns="http://www.w3.org/2000/svg">
<title>Twitter</title>
<path d="M0.182617 23.0362C4.0926 23.3504 7.585 22.4776 10.7358 20.3133C7.43316 20.069 5.23142 18.6028 4.01667 15.7752C5.11754 15.8799 6.14249 15.9148 7.24336 15.6356C5.53511 15.2516 4.16852 14.5185 3.10561 13.2967C2.0427 12.1098 1.51125 10.7135 1.51125 9.10766C2.49824 9.56147 3.52318 9.87565 4.73793 9.91056C3.18153 8.8633 2.15659 7.57168 1.73902 5.93098C1.32145 4.29028 1.58717 2.71939 2.5362 1.18342C6.44618 5.33754 11.3431 7.6415 17.341 8.0255C17.303 7.60659 17.2271 7.2226 17.2271 6.8037C16.9614 2.71939 21.1371 -0.631829 25.6165 0.101251C27.0969 0.345611 28.3496 0.904148 29.4126 1.88159C29.6024 2.05613 29.7542 2.05613 29.982 2.02122C31.3486 1.74195 32.6392 1.28814 33.854 0.694696C33.9679 0.659788 34.0438 0.589971 34.2336 0.520153C33.6642 2.05613 32.6772 3.1732 31.2726 4.04592C31.2726 4.08083 31.3106 4.11574 31.3106 4.11574C31.9559 3.9761 32.6013 3.90629 33.2466 3.73174C33.8919 3.5572 34.4993 3.34775 35.1826 3.1383C34.8789 3.48738 34.6512 3.83647 34.3475 4.11574C33.5503 4.84882 32.7152 5.5819 31.8421 6.28007C31.6902 6.4197 31.6143 6.55934 31.6143 6.76879C31.6522 12.3891 29.4885 17.2065 25.047 21.1162C22.2379 23.5947 18.8974 25.0609 15.0633 25.6892C11.3052 26.2827 7.62296 26.0383 4.01667 24.8514C2.726 24.4325 1.47329 23.874 0.2965 23.1758C0.2965 23.1409 0.258539 23.106 0.182617 23.0362Z" fill="#FCFCFA"/>
</svg>