<svg width="21" height="25" viewBox="0 0 21 25" fill="none" xmlns="http://www.w3.org/2000/svg">
<g clip-path="url(#clip0_689_3231)">
<path d="M14.6686 1.44571V0H6.07639V1.44571H0V25H20.4403V1.44571H14.6701H14.6686ZM7.33902 1.26263H13.4059V3.15025H7.33902V1.26263ZM6.07639 2.70833V4.41446H14.6686V2.70833H19.1761V5.50505H1.26263V2.70833H6.07639ZM1.26263 23.7374V6.7661H19.1777V23.7374H1.26263Z" fill="#001871"/>
<path d="M16.815 10.5824H9.4397V11.845H16.815V10.5824Z" fill="#001871"/>
<path d="M16.815 14.8295H9.4397V16.0922H16.815V14.8295Z" fill="#001871"/>
<path d="M16.815 19.0767H9.4397V20.3393H16.815V19.0767Z" fill="#001871"/>
<path d="M5.37874 11.1616L4.41441 10.2809L3.56213 11.2121L5.37874 12.8725L8.44061 10.071L7.58833 9.13983L5.37874 11.1616Z" fill="#001871"/>
<path d="M5.37874 15.3488L4.41441 14.4681L3.56213 15.3993L5.37874 17.0612L8.44061 14.2582L7.58833 13.327L5.37874 15.3488Z" fill="#001871"/>
<path d="M5.37874 19.5376L4.41441 18.6553L3.56213 19.5865L5.37874 21.2484L8.44061 18.447L7.58833 17.5142L5.37874 19.5376Z" fill="#001871"/>
</g>
<defs>
<clipPath id="clip0_689_3231">
<rect width="20.4403" height="25" fill="white"/>
</clipPath>
</defs>
</svg>
