<svg width="696" height="42" viewBox="0 0 696 42" fill="none" xmlns="http://www.w3.org/2000/svg">
<g clip-path="url(#clip0_718_118)">
<path d="M4.31539 35.7232H15.0039V39.7002H0V1.27124H4.31539V35.7232Z" fill="white"/>
<path d="M33.9353 39.7002H29.6199V1.27124H33.9353V39.7002Z" fill="white"/>
<path d="M64.1899 30.5682L75.2312 1.27124H79.9111L64.1899 41.9861L48.4688 1.27124H53.1487L64.1899 30.5682Z" fill="white"/>
<path d="M93.0923 1.27124H113.176V5.24826H97.4077V16.6661H112.717V20.6432H97.4077V35.7232H113.176V39.7002H93.0923V1.27124Z" fill="white"/>
<path d="M154.296 1.27124H160.669C167.712 1.27124 173.615 3.81373 173.615 11.6628C173.615 14.7768 172.427 17.4242 169.817 19.1503C174.438 20.2699 177.166 24.3986 177.166 28.9821C177.166 36.6212 170.946 39.6768 163.291 39.6768H154.296V1.27124ZM158.611 18.1823H160.257C165.137 18.1823 169.3 17.6225 169.3 11.6628C169.3 5.7031 165.596 5.24826 160.304 5.24826H158.611V18.194V18.1823ZM158.611 35.7115H162.926C167.759 35.7115 172.839 34.5335 172.839 28.6788C172.839 22.8241 167.089 21.8561 162.362 21.8561H158.611V35.7115Z" fill="white"/>
<path d="M198.143 39.7002H193.828V1.27124H198.143V39.7002Z" fill="white"/>
<path d="M252.28 20.3866C252.386 25.5882 251.821 29.8684 248.27 33.9387C244.719 38.0207 239.334 40.3533 233.936 40.3533C223.048 40.3533 214.006 31.3846 214.006 20.5848C214.006 9.78507 223.048 0.606445 234.195 0.606445C240.98 0.606445 246.471 3.61545 250.586 8.91036L247.459 11.8144C244.225 7.27757 239.851 4.58346 234.148 4.58346C225.317 4.58346 218.321 11.9777 218.321 20.6315C218.321 24.7135 219.967 28.5855 222.836 31.4895C225.658 34.2886 229.774 36.3763 233.831 36.3763C240.556 36.3763 247.647 31.4895 247.647 24.3519H236.135V20.3749H252.268L252.28 20.3866Z" fill="white"/>
<path d="M262.686 37.4492C262.686 39.0354 261.404 40.3533 259.805 40.3533C258.206 40.3533 256.924 39.0354 256.924 37.4492C256.924 35.8631 258.206 34.6501 259.805 34.6501C261.404 34.6501 262.686 35.9214 262.686 37.4492Z" fill="white"/>
<path d="M309.72 9.73843V16.153H320.761V24.6085H309.72V39.6885H299.655V1.27124H321.902V9.72677H309.732L309.72 9.73843Z" fill="white"/>
<path d="M343.761 33.0174L341.092 39.6885H330.403L345.301 1.27124H356.296L370.888 39.6885H360.152L357.636 33.0174H343.761ZM350.804 13.144H350.699L346.536 25.3666H354.908L350.793 13.144H350.804Z" fill="white"/>
<path d="M415.194 39.7002H402.66L393.159 24.9234H393.053V39.7002H382.988V1.27124H398.039C405.693 1.27124 411.502 4.88671 411.502 13.0973C411.502 18.3922 408.527 22.9757 403.024 23.9554L415.194 39.7002ZM393.053 18.4972H394.029C397.321 18.4972 401.013 17.8907 401.013 13.7038C401.013 9.51684 397.321 8.91037 394.029 8.91037H393.053V18.4972Z" fill="white"/>
<path d="M431.151 1.27124H441.063L448.918 21.8094L457.243 1.27124H467.261L473.117 39.6885H463.04L460.218 17.5758H460.112L450.811 39.6885H446.801L437.912 17.5758H437.806L434.572 39.6885H424.554L431.127 1.27124H431.151Z" fill="white"/>
<path d="M514.225 39.7002V1.27124H528.605C535.484 1.27124 540.117 3.9187 540.117 11.2546C540.117 14.7184 538.988 17.5175 535.86 19.1037V19.2086C541.41 19.9201 543.774 23.6405 543.774 28.9937C543.774 37.041 536.836 39.6885 529.746 39.6885H514.225V39.7002ZM524.29 16.3629H525.419C528.088 16.3629 530.863 15.8964 530.863 12.6425C530.863 9.13197 527.723 8.92204 525.007 8.92204H524.29V16.3629ZM524.29 32.0494H525.572C528.547 32.0494 533.591 32.201 533.591 27.9791C533.591 23.3489 528.605 23.8038 525.313 23.8038H524.29V32.061V32.0494Z" fill="white"/>
<path d="M600.145 19.7684C600.145 32.201 591.149 40.9714 578.72 40.9714C566.292 40.9714 557.296 32.201 557.296 19.7684C557.296 8.1523 567.573 0 578.72 0C589.868 0 600.145 8.1523 600.145 19.7684ZM567.773 19.8151C567.773 26.4396 572.7 31.2796 578.72 31.2796C584.741 31.2796 589.668 26.4396 589.668 19.8151C589.668 14.5202 584.729 9.68012 578.72 9.68012C572.712 9.68012 567.773 14.5202 567.773 19.8151Z" fill="white"/>
<path d="M625.131 31.233H637.207V39.6885H615.066V1.27124H625.131V31.233Z" fill="white"/>
<path d="M649.471 1.27124H663.758C674.541 1.27124 683.43 9.68012 683.43 20.4799C683.43 31.2796 674.494 39.6885 663.758 39.6885H649.471V1.27124ZM659.537 31.233H661.794C667.803 31.233 672.941 27.9674 672.941 20.4799C672.941 13.5988 668.367 9.72677 661.9 9.72677H659.537V31.233Z" fill="white"/>
<path d="M696 35.105C696 38.1373 693.519 40.6332 690.426 40.6332C687.334 40.6332 684.841 38.1257 684.841 35.105C684.841 32.0844 687.322 29.5652 690.426 29.5652C693.531 29.5652 696 32.026 696 35.105Z" fill="white"/>
</g>
<defs>
<clipPath id="clip0_718_118">
<rect width="696" height="41.9861" fill="white"/>
</clipPath>
</defs>
</svg>
