<svg width="32" height="32" viewBox="0 0 32 32" fill="none" xmlns="http://www.w3.org/2000/svg">
<path d="M29.6359 0H2.36413C1.06043 0 0 1.02924 0 2.30799V29.692C0 30.9645 1.05419 32 2.36413 32H29.6296C30.9333 32 32 30.9708 32 29.692V2.30799C32 1.02924 30.9333 0 29.6359 0Z" fill="#1A1818"/>
<path d="M9.4954 12.002H4.74219V27.2721H9.4954V12.002Z" fill="#FCFCFA"/>
<path d="M17.2056 19.7178C17.2056 17.7279 17.5861 15.8004 20.0563 15.8004C22.5264 15.8004 22.5264 18.0772 22.5264 19.8488V27.2718H27.2672L27.2609 18.8944C27.2609 14.7837 26.3752 11.6211 21.5721 11.6211C19.2641 11.6211 17.7171 12.8874 17.0808 14.085H17.0184V12.0016H12.4648V27.2718H17.2056V19.7178Z" fill="#FCFCFA"/>
<path d="M7.63614 9.86279C9.12799 9.5755 10.1045 8.13322 9.81721 6.64136C9.52992 5.1495 8.08764 4.173 6.59578 4.46029C5.10392 4.74758 4.12742 6.18986 4.41471 7.68172C4.702 9.17357 6.14428 10.1501 7.63614 9.86279Z" fill="#FCFCFA"/>
</svg>
