<svg
  width="55"
  height="54"
  viewBox="0 0 55 54"
  fill="none"
  xmlns="http://www.w3.org/2000/svg"
>
<circle
    cx="27.3994"
    cy="26.665"
    r="25.915"
    stroke="#007078"
    stroke-width="1.5"
  />
<path
    d="M39.9768 33.174V36.8095C39.9782 37.147 39.9089 37.481 39.7734 37.7902C39.638 38.0995 39.4393 38.3771 39.1901 38.6052C38.9409 38.8334 38.6467 39.0071 38.3264 39.1152C38.006 39.2233 37.6666 39.2635 37.3298 39.2331C33.5934 38.8279 30.0044 37.5537 26.851 35.5128C23.9172 33.6523 21.4299 31.1699 19.5657 28.2419C17.5136 25.0805 16.2365 21.4811 15.838 17.7354C15.8076 17.4003 15.8475 17.0625 15.9552 16.7437C16.0628 16.4248 16.2357 16.1318 16.463 15.8833C16.6903 15.6348 16.967 15.4362 17.2754 15.3003C17.5838 15.1643 17.9172 15.0939 18.2543 15.0936H21.897C22.4862 15.0878 23.0575 15.2961 23.5043 15.6796C23.9511 16.0631 24.243 16.5956 24.3254 17.178C24.4792 18.3414 24.7643 19.4837 25.1754 20.5832C25.3388 21.0169 25.3741 21.4883 25.2773 21.9415C25.1804 22.3947 24.9554 22.8106 24.629 23.1401L23.0869 24.6791C24.8154 27.713 27.3324 30.225 30.3723 31.9501L31.9143 30.411C32.2445 30.0852 32.6613 29.8607 33.1154 29.764C33.5694 29.6674 34.0418 29.7027 34.4764 29.8657C35.578 30.276 36.7226 30.5606 37.8883 30.714C38.4782 30.797 39.0168 31.0936 39.4019 31.5471C39.787 32.0007 39.9916 32.5797 39.9768 33.174Z"
    stroke="#007078"
    stroke-width="1.5"
    stroke-linecap="round"
    stroke-linejoin="round"
  />
</svg>
