<svg xmlns="http://www.w3.org/2000/svg" width="48" height="48" viewBox="0 0 48 48" fill="none">
  <path d="M0 4C0 1.79086 1.79086 0 4 0H44C46.2091 0 48 1.79086 48 4V48H0V4Z" fill="#FCFCFA"/>
  <path d="M22.1429 15.5873C19.0317 17.873 17.254 20.9841 17.254 23.6508C17.254 25.9365 18.6508 27.8413 21.9524 28.5397C22.5238 31.9683 21 34 18.1429 34C15.7302 34 13 31.9048 13 27.0794C13 21.4286 16.4286 16.6032 20.9365 14C20.9365 14 22.0159 15.3968 22.1429 15.5873ZM35.9841 15.5873C32.873 17.873 31.0952 20.9841 31.0952 23.6508C31.0952 25.9365 32.4921 27.8413 35.7937 28.5397C36.3651 31.9683 34.8413 34 31.9841 34C29.5714 34 26.8413 31.9048 26.8413 27.0794C26.8413 21.4286 30.2698 16.6032 34.7778 14C34.7778 14 35.8571 15.3968 35.9841 15.5873Z" fill="#1A1818"/>
</svg>